<svg width="69" height="22" viewBox="0 0 69 22" fill="none"
    xmlns="http://www.w3.org/2000/svg">
    <path class="fill-current text-gray-900 dark:text-white" d="M49.3253 21.9997C48.7373 21.9997 48.2608 21.5232 48.2608 20.9352V1.06447C48.2608 0.47645 48.7373 0 49.3253 0C49.9133 0 50.3897 0.47645 50.3897 1.06447V20.9352C50.3897 21.5232 49.913 21.9997 49.3253 21.9997ZM67.5303 19.2114C67.9109 18.7632 67.8562 18.0916 67.4081 17.711C66.9599 17.3304 66.2883 17.3851 65.9077 17.8333C64.8077 19.1281 63.1612 19.8707 61.3896 19.8707C58.4548 19.8707 56.0672 17.4832 56.0672 14.5484C56.0672 11.6136 58.4548 9.22604 61.3896 9.22604C63.7743 9.22604 65.7666 10.9395 66.199 13.2001H59.6862C59.0982 13.2001 58.6217 13.6766 58.6217 14.2646C58.6217 14.8526 59.0982 15.3291 59.6862 15.3291H67.3506C67.9386 15.3291 68.415 14.8526 68.415 14.2646V14.1225C68.415 10.2484 65.2634 7.09678 61.3893 7.09678C57.2804 7.09678 53.9377 10.4395 53.9377 14.5484C53.9377 18.6573 57.2807 21.9997 61.3896 21.9997C63.7869 21.9997 66.0252 20.9833 67.5303 19.2114ZM44.7122 20.9352V14.1222C44.7122 10.2481 41.5606 7.09647 37.6865 7.09647C33.5776 7.09647 30.2349 10.4392 30.2349 14.5481C30.2349 18.657 33.5779 21.9997 37.6865 21.9997C38.2745 21.9997 38.751 21.5232 38.751 20.9352C38.751 20.3472 38.2745 19.8707 37.6865 19.8707C34.7517 19.8707 32.3641 17.4832 32.3641 14.5484C32.3641 11.6136 34.7517 9.22604 37.6865 9.22604C40.3865 9.22604 42.5833 11.4226 42.5833 14.1229V20.9355C42.5833 21.5236 43.0598 22 43.6478 22C44.2358 21.9997 44.7122 21.5232 44.7122 20.9352ZM12.4899 17.7418C12.4899 16.7028 12.1084 15.2857 10.2903 14.4343C9.19941 13.9233 7.83072 13.7133 6.50696 13.5103C3.40564 13.0348 2.30439 12.6376 2.30439 11.3547C2.30439 9.95706 4.24257 9.22573 6.15717 9.22573C7.36369 9.22573 9.09758 9.46898 10.5074 10.6284C10.9616 11.0017 11.6326 10.9364 12.0059 10.4822C12.3793 10.0281 12.3139 9.35741 11.8601 8.98373C9.96343 7.42364 7.71192 7.09616 6.15748 7.09616C2.04763 7.09616 0.175767 9.30335 0.175767 11.354C0.175767 12.4 0.558876 13.8265 2.38391 14.6842C3.48075 15.1996 4.85542 15.4102 6.18483 15.6141C9.26698 16.0868 10.3613 16.479 10.3613 17.7412C10.3613 19.0146 8.84113 19.8701 6.57893 19.8701C4.26299 19.8701 2.49799 18.931 1.65226 18.371C1.16198 18.0467 0.501677 18.1809 0.177024 18.6711C-0.147628 19.1614 -0.0131158 19.8217 0.477163 20.1464C2.28177 21.3416 4.44874 21.9997 6.57862 21.9997C10.6621 21.9997 12.4899 19.861 12.4899 17.7418ZM27.9249 18.8578C28.2502 18.3682 28.1173 17.7075 27.6276 17.382C27.138 17.0567 26.4773 17.1896 26.1517 17.6793C25.24 19.0514 23.7142 19.8704 22.0708 19.8704C19.136 19.8704 16.7484 17.4828 16.7484 14.5481C16.7484 11.6133 19.136 9.22573 22.0708 9.22573C23.7145 9.22573 25.24 10.0447 26.1517 11.4169C26.4773 11.9065 27.138 12.0398 27.6276 11.7142C28.1173 11.3889 28.2505 10.728 27.9249 10.2383C26.6175 8.27094 24.4289 7.09647 22.0708 7.09647C17.9619 7.09647 14.6192 10.4392 14.6192 14.5481C14.6192 18.657 17.9619 21.9997 22.0705 21.9997C24.4289 21.9997 26.6172 20.8252 27.9249 18.8578Z"></path>
</svg>